<svg xmlns="http://www.w3.org/2000/svg" xmlns:xlink="http://www.w3.org/1999/xlink" width="500" zoomAndPan="magnify" viewBox="0 0 375 374.999991" height="500" preserveAspectRatio="xMidYMid meet" version="1.0"><defs><g/></defs><g fill="#524b46" fill-opacity="1"><g transform="translate(18.51437, 39.491983)"><g><path d="M 23.5 4.375 C 19.320312 4.46875 15.804688 4.050781 12.953125 3.125 C 10.097656 2.207031 7.878906 0.476562 6.296875 -2.0625 C 4.710938 -4.613281 5.378906 -6.84375 8.296875 -8.75 C 9.835938 -9.632812 11.4375 -10.394531 13.09375 -11.03125 C 17 -12.445312 20.90625 -13.828125 24.8125 -15.171875 C 26.1875 -15.691406 27.585938 -16.195312 29.015625 -16.6875 C 29.328125 -16.78125 29.644531 -16.882812 29.96875 -17 C 30.488281 -17.164062 31.015625 -17.335938 31.546875 -17.515625 C 32.429688 -17.867188 32.539062 -18.441406 31.875 -19.234375 C 31.488281 -19.671875 31.101562 -20.101562 30.71875 -20.53125 C 30.539062 -20.71875 30.347656 -20.929688 30.140625 -21.171875 C 29.910156 -21.378906 29.675781 -21.59375 29.4375 -21.8125 C 29.0625 -22.164062 28.703125 -22.535156 28.359375 -22.921875 C 28.015625 -23.304688 27.789062 -23.753906 27.6875 -24.265625 C 27.644531 -24.378906 27.632812 -24.5 27.65625 -24.625 C 27.6875 -24.75 27.757812 -24.863281 27.875 -24.96875 C 27.96875 -24.988281 28.082031 -25 28.21875 -25 C 28.351562 -25.007812 28.488281 -24.976562 28.625 -24.90625 C 29.050781 -24.6875 29.457031 -24.421875 29.84375 -24.109375 C 30.726562 -23.222656 31.59375 -22.335938 32.4375 -21.453125 C 32.769531 -21.085938 33.054688 -20.769531 33.296875 -20.5 C 33.828125 -19.894531 34.242188 -19.460938 34.546875 -19.203125 C 34.859375 -18.953125 35.226562 -18.859375 35.65625 -18.921875 C 36.082031 -18.984375 36.6875 -19.144531 37.46875 -19.40625 C 37.882812 -19.53125 38.363281 -19.660156 38.90625 -19.796875 C 40.40625 -20.234375 41.925781 -20.695312 43.46875 -21.1875 C 44.15625 -21.40625 44.84375 -21.601562 45.53125 -21.78125 C 46.175781 -22 46.816406 -22.007812 47.453125 -21.8125 C 48.003906 -21.570312 48.300781 -21.207031 48.34375 -20.71875 C 48.363281 -20.5625 48.328125 -20.394531 48.234375 -20.21875 C 48.148438 -20.050781 48.054688 -19.925781 47.953125 -19.84375 C 47.359375 -19.3125 46.644531 -18.941406 45.8125 -18.734375 C 45.632812 -18.691406 45.429688 -18.632812 45.203125 -18.5625 C 44.484375 -18.269531 43.742188 -17.984375 42.984375 -17.703125 C 41.566406 -17.234375 40.148438 -16.710938 38.734375 -16.140625 C 38.453125 -16.078125 38.273438 -15.925781 38.203125 -15.6875 C 38.140625 -15.457031 38.195312 -15.25 38.375 -15.0625 C 39.300781 -13.96875 40.222656 -12.90625 41.140625 -11.875 C 41.609375 -11.34375 42.078125 -10.816406 42.546875 -10.296875 C 43.992188 -8.609375 44.347656 -7.738281 43.609375 -7.6875 C 43.148438 -7.6875 42.785156 -7.800781 42.515625 -8.03125 C 42.253906 -8.257812 42.019531 -8.523438 41.8125 -8.828125 C 41.664062 -8.992188 41.519531 -9.160156 41.375 -9.328125 C 39.769531 -10.921875 38.210938 -12.535156 36.703125 -14.171875 C 36.015625 -14.929688 35.207031 -15.132812 34.28125 -14.78125 C 33.382812 -14.457031 32.488281 -14.128906 31.59375 -13.796875 C 30.375 -13.390625 29.207031 -12.984375 28.09375 -12.578125 C 27.019531 -12.210938 25.9375 -11.835938 24.84375 -11.453125 C 22.050781 -10.515625 19.28125 -9.539062 16.53125 -8.53125 C 14.769531 -7.832031 13.070312 -7.003906 11.4375 -6.046875 C 8.351562 -4.441406 8.253906 -2.613281 11.140625 -0.5625 C 14.003906 1.425781 18.191406 2.445312 23.703125 2.5 C 25.554688 3.03125 25.488281 3.65625 23.5 4.375 Z M 23.5 4.375 "/></g></g></g><g fill="#524b46" fill-opacity="1"><g transform="translate(29.96311, 52.318931)"><g><path d="M 8.546875 -1.1875 L 8.484375 -1.265625 C 6.566406 -3.460938 5.769531 -5.328125 6.09375 -6.859375 C 6.414062 -8.390625 7.703125 -9.484375 9.953125 -10.140625 C 11.703125 -10.566406 13.453125 -10.695312 15.203125 -10.53125 C 15.796875 -10.46875 16.332031 -10.335938 16.8125 -10.140625 C 17.300781 -9.953125 17.742188 -9.644531 18.140625 -9.21875 C 18.421875 -9 18.640625 -8.664062 18.796875 -8.21875 C 18.859375 -8.082031 18.914062 -7.941406 18.96875 -7.796875 C 19.238281 -7.578125 19.539062 -7.398438 19.875 -7.265625 C 19.976562 -7.242188 20.09375 -7.195312 20.21875 -7.125 C 20.851562 -6.8125 21.398438 -6.359375 21.859375 -5.765625 C 22.066406 -5.535156 22.273438 -5.300781 22.484375 -5.0625 C 23.148438 -4.0625 23.378906 -3.0625 23.171875 -2.0625 C 22.972656 -1.0625 22.375 -0.242188 21.375 0.390625 C 20.78125 0.785156 20.140625 1.066406 19.453125 1.234375 C 14.804688 2.265625 11.210938 1.503906 8.671875 -1.046875 Z M 19.828125 -4.84375 C 18.816406 -6.070312 17.53125 -6.820312 15.96875 -7.09375 C 14.40625 -7.375 12.945312 -7.3125 11.59375 -6.90625 C 10.25 -6.507812 9.363281 -5.9375 8.9375 -5.1875 C 8.507812 -4.445312 8.898438 -3.671875 10.109375 -2.859375 C 11.535156 -1.984375 13.148438 -1.535156 14.953125 -1.515625 C 16.765625 -1.492188 18.207031 -1.78125 19.28125 -2.375 C 20.351562 -2.96875 20.535156 -3.789062 19.828125 -4.84375 Z M 19.828125 -4.84375 "/></g></g></g><g fill="#524b46" fill-opacity="1"><g transform="translate(40.66607, 64.31032)"><g><path d="M 30.59375 -8.921875 C 31.65625 -7.734375 31.273438 -6.945312 29.453125 -6.5625 C 28.734375 -6.457031 28.019531 -6.390625 27.3125 -6.359375 C 26.726562 -6.296875 26.203125 -6.410156 25.734375 -6.703125 C 25.265625 -7.003906 24.945312 -7.410156 24.78125 -7.921875 C 24.625 -8.328125 24.742188 -8.644531 25.140625 -8.875 C 25.804688 -9.226562 26.503906 -9.554688 27.234375 -9.859375 C 28.585938 -10.335938 29.707031 -10.023438 30.59375 -8.921875 Z M 9.6875 1.171875 C 10.75 2.359375 10.351562 3.128906 8.5 3.484375 C 7.8125 3.617188 7.113281 3.695312 6.40625 3.71875 C 5.820312 3.800781 5.296875 3.691406 4.828125 3.390625 C 4.359375 3.085938 4.039062 2.679688 3.875 2.171875 C 3.738281 1.753906 3.859375 1.429688 4.234375 1.203125 C 4.898438 0.859375 5.601562 0.535156 6.34375 0.234375 C 7.6875 -0.253906 8.800781 0.0546875 9.6875 1.171875 Z M 9.6875 1.171875 "/></g></g></g><g fill="#524b46" fill-opacity="1"><g transform="translate(48.365751, 72.936894)"><g><path d="M 134.59375 155.546875 C 134.675781 155.640625 134.765625 155.742188 134.859375 155.859375 C 135.066406 156.078125 135.25 156.320312 135.40625 156.59375 C 135.570312 156.875 135.640625 157.203125 135.609375 157.578125 C 135.585938 157.671875 135.550781 157.773438 135.5 157.890625 C 135.457031 158.003906 135.382812 158.109375 135.28125 158.203125 C 135.195312 158.234375 135.085938 158.257812 134.953125 158.28125 C 134.828125 158.3125 134.71875 158.316406 134.625 158.296875 C 134.320312 158.078125 134.054688 157.804688 133.828125 157.484375 C 133.710938 157.347656 133.582031 157.203125 133.4375 157.046875 C 132.0625 155.296875 130.695312 153.53125 129.34375 151.75 C 126.851562 148.488281 124.347656 145.25 121.828125 142.03125 C 111.410156 128.769531 100.773438 115.988281 89.921875 103.6875 C 79.066406 91.382812 67.816406 79.125 56.171875 66.90625 C 54.960938 65.59375 53.695312 64.34375 52.375 63.15625 C 51.164062 61.976562 49.984375 60.769531 48.828125 59.53125 C 47.703125 58.351562 46.3125 57.867188 44.65625 58.078125 C 37.726562 58.660156 30.789062 58.78125 23.84375 58.4375 C 18.9375 58.226562 14.203125 57.660156 9.640625 56.734375 C 5.078125 55.816406 0.816406 54.375 -3.140625 52.40625 C -7.109375 50.445312 -10.566406 47.796875 -13.515625 44.453125 C -16.472656 41.109375 -18.753906 36.90625 -20.359375 31.84375 C -21.140625 29.507812 -21.425781 27.085938 -21.21875 24.578125 C -20.695312 20.347656 -18.335938 17.820312 -14.140625 17 C -11.328125 16.5625 -8.523438 16.738281 -5.734375 17.53125 C -1.453125 18.664062 2.957031 20.503906 7.5 23.046875 C 12.050781 25.585938 16.546875 28.550781 20.984375 31.9375 C 25.421875 35.320312 29.628906 38.773438 33.609375 42.296875 C 37.597656 45.828125 41.160156 49.125 44.296875 52.1875 C 45.578125 53.40625 47.070312 53.90625 48.78125 53.6875 C 55.0625 52.90625 62.160156 51.703125 70.078125 50.078125 C 78.003906 48.453125 86.09375 46.46875 94.34375 44.125 C 102.601562 41.789062 110.359375 39.195312 117.609375 36.34375 C 124.859375 33.5 130.976562 30.476562 135.96875 27.28125 C 137.46875 26.28125 138.753906 25.050781 139.828125 23.59375 C 141.472656 21.15625 141.503906 18.742188 139.921875 16.359375 C 139.679688 16.035156 139.441406 15.738281 139.203125 15.46875 C 138.628906 14.832031 137.988281 14.28125 137.28125 13.8125 C 134.28125 11.582031 130.035156 9.320312 124.546875 7.03125 C 119.054688 4.738281 112.914062 2.660156 106.125 0.796875 C 99.34375 -1.054688 92.457031 -2.476562 85.46875 -3.46875 C 78.476562 -4.457031 71.984375 -4.78125 65.984375 -4.4375 C 59.992188 -4.09375 55.019531 -2.832031 51.0625 -0.65625 C 47.707031 1.25 46.546875 4.078125 47.578125 7.828125 C 48.503906 10.722656 50.070312 13.296875 52.28125 15.546875 C 54.5 17.804688 56.789062 19.816406 59.15625 21.578125 C 60.613281 22.660156 61.9375 23.863281 63.125 25.1875 C 63.625 25.738281 64.082031 26.300781 64.5 26.875 C 64.613281 27.007812 64.679688 27.175781 64.703125 27.375 C 64.722656 27.570312 64.617188 27.734375 64.390625 27.859375 C 64.003906 28.085938 63.660156 28.066406 63.359375 27.796875 C 61.566406 26.140625 59.695312 24.507812 57.75 22.90625 C 55.320312 21.019531 53.035156 19 50.890625 16.84375 C 48.742188 14.695312 46.972656 12.253906 45.578125 9.515625 C 44.867188 8.109375 44.398438 6.644531 44.171875 5.125 C 43.660156 1.425781 44.972656 -1.4375 48.109375 -3.46875 C 52.210938 -5.9375 57.453125 -7.398438 63.828125 -7.859375 C 70.203125 -8.316406 77.078125 -8.015625 84.453125 -6.953125 C 91.835938 -5.898438 99.125 -4.335938 106.3125 -2.265625 C 113.507812 -0.203125 119.984375 2.097656 125.734375 4.640625 C 131.484375 7.179688 135.910156 9.722656 139.015625 12.265625 C 139.796875 12.867188 140.492188 13.546875 141.109375 14.296875 C 142.265625 15.535156 143.191406 16.90625 143.890625 18.40625 C 145.148438 21.21875 144.90625 23.910156 143.15625 26.484375 C 141.164062 29.148438 137.59375 31.800781 132.4375 34.4375 C 127.28125 37.082031 121.1875 39.640625 114.15625 42.109375 C 107.125 44.578125 99.851562 46.828125 92.34375 48.859375 C 84.84375 50.898438 77.816406 52.625 71.265625 54.03125 C 64.710938 55.4375 59.3125 56.429688 55.0625 57.015625 C 53.914062 57.140625 52.773438 57.289062 51.640625 57.46875 C 51.359375 57.5625 51.175781 57.726562 51.09375 57.96875 C 51.007812 58.21875 51.070312 58.457031 51.28125 58.6875 L 51.3125 58.734375 C 51.851562 59.335938 52.410156 59.921875 52.984375 60.484375 C 54.585938 62.179688 56.234375 63.863281 57.921875 65.53125 C 61.398438 69.082031 64.851562 72.675781 68.28125 76.3125 C 91.988281 101.363281 114.09375 127.773438 134.59375 155.546875 Z M 36.734375 54.609375 C 37.097656 54.597656 37.476562 54.582031 37.875 54.5625 C 38.570312 54.550781 39.304688 54.507812 40.078125 54.4375 C 40.847656 54.375 41.671875 54.191406 42.546875 53.890625 C 42.273438 53.585938 42.023438 53.304688 41.796875 53.046875 C 41.703125 52.941406 41.609375 52.835938 41.515625 52.734375 C 41.410156 52.609375 41.285156 52.460938 41.140625 52.296875 C 40.046875 51.347656 38.945312 50.398438 37.84375 49.453125 C 36.425781 48.203125 35.015625 46.953125 33.609375 45.703125 C 30.429688 42.753906 26.566406 39.503906 22.015625 35.953125 C 17.460938 32.410156 12.695312 29.203125 7.71875 26.328125 C 2.738281 23.453125 -1.925781 21.609375 -6.28125 20.796875 C -7.789062 20.523438 -9.316406 20.414062 -10.859375 20.46875 C -15.566406 20.757812 -17.90625 23.25 -17.875 27.9375 C -17.625 33.113281 -16.1875 37.40625 -13.5625 40.8125 C -10.945312 44.226562 -7.550781 46.910156 -3.375 48.859375 C 0.800781 50.816406 5.3125 52.21875 10.15625 53.0625 C 15.007812 53.914062 19.753906 54.425781 24.390625 54.59375 C 29.035156 54.769531 33.148438 54.773438 36.734375 54.609375 Z M 36.734375 54.609375 "/></g></g></g><g fill="#524b46" fill-opacity="1"><g transform="translate(114.659599, 147.211243)"><g><path d="M 8.546875 -1.1875 L 8.484375 -1.265625 C 6.566406 -3.460938 5.769531 -5.328125 6.09375 -6.859375 C 6.414062 -8.390625 7.703125 -9.484375 9.953125 -10.140625 C 11.703125 -10.566406 13.453125 -10.695312 15.203125 -10.53125 C 15.796875 -10.46875 16.332031 -10.335938 16.8125 -10.140625 C 17.300781 -9.953125 17.742188 -9.644531 18.140625 -9.21875 C 18.421875 -9 18.640625 -8.664062 18.796875 -8.21875 C 18.859375 -8.082031 18.914062 -7.941406 18.96875 -7.796875 C 19.238281 -7.578125 19.539062 -7.398438 19.875 -7.265625 C 19.976562 -7.242188 20.09375 -7.195312 20.21875 -7.125 C 20.851562 -6.8125 21.398438 -6.359375 21.859375 -5.765625 C 22.066406 -5.535156 22.273438 -5.300781 22.484375 -5.0625 C 23.148438 -4.0625 23.378906 -3.0625 23.171875 -2.0625 C 22.972656 -1.0625 22.375 -0.242188 21.375 0.390625 C 20.78125 0.785156 20.140625 1.066406 19.453125 1.234375 C 14.804688 2.265625 11.210938 1.503906 8.671875 -1.046875 Z M 19.828125 -4.84375 C 18.816406 -6.070312 17.53125 -6.820312 15.96875 -7.09375 C 14.40625 -7.375 12.945312 -7.3125 11.59375 -6.90625 C 10.25 -6.507812 9.363281 -5.9375 8.9375 -5.1875 C 8.507812 -4.445312 8.898438 -3.671875 10.109375 -2.859375 C 11.535156 -1.984375 13.148438 -1.535156 14.953125 -1.515625 C 16.765625 -1.492188 18.207031 -1.78125 19.28125 -2.375 C 20.351562 -2.96875 20.535156 -3.789062 19.828125 -4.84375 Z M 19.828125 -4.84375 "/></g></g></g><g fill="#524b46" fill-opacity="1"><g transform="translate(125.362559, 159.202632)"><g><path d="M 21.21875 0.71875 C 18.207031 -0.863281 15.945312 -1.9375 14.4375 -2.5 C 13.375 -2.9375 12.664062 -3.097656 12.3125 -2.984375 C 11.96875 -2.867188 11.597656 -2.378906 11.203125 -1.515625 C 11.171875 -1.484375 11.144531 -1.414062 11.125 -1.3125 C 10.613281 -0.269531 9.957031 0.660156 9.15625 1.484375 C 7.519531 3.128906 4.992188 2.738281 1.578125 0.3125 C -1.828125 -2.113281 -3.664062 -4.128906 -3.9375 -5.734375 C -4.21875 -7.347656 -3.679688 -8.398438 -2.328125 -8.890625 C -0.984375 -9.378906 0.941406 -9.242188 3.453125 -8.484375 C 5.972656 -7.734375 7.710938 -7.273438 8.671875 -7.109375 C 9.628906 -6.941406 10.285156 -7.222656 10.640625 -7.953125 C 10.773438 -8.203125 10.894531 -8.457031 11 -8.71875 C 11.289062 -9.332031 11.59375 -9.96875 11.90625 -10.625 C 12.457031 -11.8125 13.191406 -12.769531 14.109375 -13.5 C 15.023438 -14.238281 16.046875 -14.570312 17.171875 -14.5 C 18.296875 -14.4375 19.441406 -13.800781 20.609375 -12.59375 C 21.273438 -11.90625 21.75 -11.1875 22.03125 -10.4375 C 22.3125 -9.6875 22.300781 -8.890625 22 -8.046875 C 21.832031 -7.410156 21.390625 -7.15625 20.671875 -7.28125 C 20.191406 -7.375 19.882812 -7.660156 19.75 -8.140625 C 19.65625 -8.429688 19.601562 -8.75 19.59375 -9.09375 C 19.632812 -9.132812 19.65625 -9.15625 19.65625 -9.15625 C 19.632812 -9.300781 19.625 -9.441406 19.625 -9.578125 C 19.675781 -9.773438 19.695312 -9.960938 19.6875 -10.140625 C 19.613281 -10.785156 19.347656 -11.253906 18.890625 -11.546875 C 18.429688 -11.847656 17.859375 -11.878906 17.171875 -11.640625 C 16.660156 -11.410156 16.203125 -11.117188 15.796875 -10.765625 C 15.328125 -10.285156 14.941406 -9.742188 14.640625 -9.140625 C 14.484375 -8.753906 14.332031 -8.398438 14.1875 -8.078125 C 13.75 -7.222656 13.476562 -6.601562 13.375 -6.21875 C 13.28125 -5.832031 13.351562 -5.535156 13.59375 -5.328125 C 13.84375 -5.128906 16.515625 -3.675781 21.609375 -0.96875 C 22.671875 -0.351562 22.539062 0.207031 21.21875 0.71875 Z M 3.859375 -1.359375 C 5.160156 -0.628906 6.257812 -0.816406 7.15625 -1.921875 C 7.238281 -1.992188 7.3125 -2.085938 7.375 -2.203125 C 7.894531 -2.765625 8.226562 -3.273438 8.375 -3.734375 C 8.519531 -4.191406 8.144531 -4.585938 7.25 -4.921875 C 4.96875 -5.691406 2.644531 -6.207031 0.28125 -6.46875 C 0.0820312 -6.46875 -0.09375 -6.472656 -0.25 -6.484375 C -0.25 -6.484375 -0.289062 -6.476562 -0.375 -6.46875 C -0.5625 -6.4375 -0.707031 -6.320312 -0.8125 -6.125 C -0.914062 -5.9375 -0.875 -5.738281 -0.6875 -5.53125 C 0.457031 -3.757812 1.972656 -2.367188 3.859375 -1.359375 Z M 3.859375 -1.359375 "/></g></g></g><g fill="#524b46" fill-opacity="1"><g transform="translate(134.29177, 169.206748)"><g><path d="M 26.890625 8.953125 C 26.410156 8.878906 25.941406 8.785156 25.484375 8.671875 C 24.015625 8.253906 22.757812 7.804688 21.71875 7.328125 C 20.675781 6.859375 19.507812 6.257812 18.21875 5.53125 C 16.351562 4.382812 15.5625 3.285156 15.84375 2.234375 C 16.125 1.191406 17 0.28125 18.46875 -0.5 C 20.570312 -1.601562 22.046875 -2.476562 22.890625 -3.125 C 23.742188 -3.769531 23.78125 -4.273438 23 -4.640625 C 22.226562 -5.015625 20.441406 -5.359375 17.640625 -5.671875 C 13.816406 -6.179688 10 -6.132812 6.1875 -5.53125 C 5.675781 -5.425781 5.1875 -5.421875 4.71875 -5.515625 C 4.257812 -5.617188 3.84375 -5.878906 3.46875 -6.296875 C 3.101562 -6.703125 2.941406 -7.085938 2.984375 -7.453125 C 3.035156 -7.828125 3.316406 -8.09375 3.828125 -8.25 C 6.585938 -9.113281 9.347656 -9.9375 12.109375 -10.71875 C 16.867188 -12.113281 21.597656 -13.507812 26.296875 -14.90625 C 29.828125 -15.96875 33.332031 -17.046875 36.8125 -18.140625 C 38.882812 -18.742188 40.953125 -19.363281 43.015625 -20 C 43.179688 -20.0625 43.367188 -20.109375 43.578125 -20.140625 C 43.796875 -20.234375 44.019531 -20.3125 44.25 -20.375 C 44.488281 -20.445312 44.757812 -20.507812 45.0625 -20.5625 C 45.300781 -20.632812 45.585938 -20.59375 45.921875 -20.4375 C 46.253906 -20.28125 46.546875 -20.09375 46.796875 -19.875 C 47.046875 -19.65625 47.203125 -19.445312 47.265625 -19.25 C 47.296875 -18.925781 47.25 -18.6875 47.125 -18.53125 C 47 -18.382812 46.8125 -18.269531 46.5625 -18.1875 C 46.5 -18.1875 46.4375 -18.15625 46.375 -18.09375 C 45.207031 -17.601562 44.070312 -17.15625 42.96875 -16.75 C 36.644531 -14.539062 30.238281 -12.570312 23.75 -10.84375 C 23.300781 -10.738281 22.769531 -10.613281 22.15625 -10.46875 C 21.25 -10.269531 20.378906 -10.050781 19.546875 -9.8125 C 18.710938 -9.582031 18.238281 -9.328125 18.125 -9.046875 C 18.019531 -8.773438 18.566406 -8.46875 19.765625 -8.125 C 20.160156 -8.03125 20.523438 -7.957031 20.859375 -7.90625 C 21.847656 -7.65625 22.800781 -7.390625 23.71875 -7.109375 C 24.570312 -6.878906 25.3125 -6.445312 25.9375 -5.8125 C 27.457031 -4.332031 27.53125 -2.804688 26.15625 -1.234375 C 25.613281 -0.609375 24.988281 -0.0859375 24.28125 0.328125 C 23.570312 0.742188 22.847656 1.128906 22.109375 1.484375 C 21.910156 1.597656 21.71875 1.722656 21.53125 1.859375 C 20.269531 2.484375 19.742188 3.066406 19.953125 3.609375 C 20.171875 4.160156 20.769531 4.671875 21.75 5.140625 C 22.738281 5.609375 23.800781 6.03125 24.9375 6.40625 C 25.675781 6.675781 26.320312 6.921875 26.875 7.140625 C 27.425781 7.359375 27.773438 7.585938 27.921875 7.828125 C 28.179688 8.234375 28.179688 8.523438 27.921875 8.703125 C 27.660156 8.878906 27.316406 8.960938 26.890625 8.953125 Z M 26.890625 8.953125 "/></g></g></g><g fill="#524b46" fill-opacity="1"><g transform="translate(149.670983, 186.437322)"><g><path d="M 4.5 -3 C 3.21875 -4.425781 3.320312 -5.804688 4.8125 -7.140625 C 6.632812 -8.765625 10.910156 -10.453125 17.640625 -12.203125 C 17.910156 -12.296875 18.15625 -12.222656 18.375 -11.984375 C 19.21875 -11.035156 19.257812 -10.222656 18.5 -9.546875 C 18.238281 -9.304688 17.835938 -9.085938 17.296875 -8.890625 C 17.128906 -8.867188 14.441406 -7.890625 9.234375 -5.953125 C 8.378906 -5.628906 7.800781 -5.332031 7.5 -5.0625 C 7.164062 -4.769531 7.128906 -4.472656 7.390625 -4.171875 C 8.378906 -3.078125 13.6875 -2.632812 23.3125 -2.84375 C 24.582031 -2.894531 25.476562 -2.628906 26 -2.046875 C 26.769531 -1.179688 26.84375 -0.46875 26.21875 0.09375 C 25.976562 0.3125 24.832031 0.859375 22.78125 1.734375 C 19.976562 2.941406 18.414062 3.691406 18.09375 3.984375 C 17.59375 4.421875 17.492188 4.804688 17.796875 5.140625 C 18.523438 5.960938 22.15625 7.066406 28.6875 8.453125 C 29.082031 8.503906 29.351562 8.609375 29.5 8.765625 C 29.832031 9.140625 29.679688 9.609375 29.046875 10.171875 C 28.878906 10.316406 28.695312 10.390625 28.5 10.390625 C 24.789062 9.898438 21.796875 9.332031 19.515625 8.6875 C 17.429688 8.09375 15.921875 7.269531 14.984375 6.21875 L 14.703125 5.90625 C 13.640625 4.0625 14.15625 2.207031 16.25 0.34375 C 13.3125 -0.0078125 10.90625 -0.332031 9.03125 -0.625 C 7.164062 -0.914062 5.65625 -1.707031 4.5 -3 Z M 4.5 -3 "/></g></g></g><g fill="#524b46" fill-opacity="1"><g transform="translate(166.239391, 205.000246)"><g><path d="M 26.125 6.109375 C 26.238281 6.648438 25.769531 7.113281 24.71875 7.5 C 23.757812 7.582031 22.8125 7.59375 21.875 7.53125 C 20.9375 7.476562 20.007812 7.335938 19.09375 7.109375 C 19.050781 7.066406 19.015625 7.054688 18.984375 7.078125 C 18.359375 6.921875 17.753906 6.71875 17.171875 6.46875 C 12.660156 4.007812 11.78125 1.492188 14.53125 -1.078125 C 11.957031 -1.410156 10.3125 -1.695312 9.59375 -1.9375 C 7.832031 -2.5 6.359375 -3.507812 5.171875 -4.96875 C 4.328125 -6.039062 4.023438 -7.015625 4.265625 -7.890625 C 4.503906 -8.765625 5.296875 -9.410156 6.640625 -9.828125 C 8.753906 -10.523438 10.945312 -10.789062 13.21875 -10.625 C 15.832031 -10.382812 18.316406 -9.742188 20.671875 -8.703125 C 21.972656 -8.191406 23.023438 -7.378906 23.828125 -6.265625 C 24.679688 -5.179688 24.65625 -4.039062 23.75 -2.84375 C 23.5 -2.46875 23.128906 -2.296875 22.640625 -2.328125 C 22.046875 -2.378906 21.640625 -2.695312 21.421875 -3.28125 C 21.398438 -3.3125 21.367188 -3.359375 21.328125 -3.421875 C 21.285156 -3.484375 21.269531 -3.546875 21.28125 -3.609375 C 21.488281 -4.585938 21.347656 -5.253906 20.859375 -5.609375 C 20.367188 -5.960938 19.75 -6.253906 19 -6.484375 C 15.582031 -7.585938 12.15625 -7.628906 8.71875 -6.609375 C 8.550781 -6.566406 8.398438 -6.492188 8.265625 -6.390625 C 8.128906 -6.285156 8.054688 -6.160156 8.046875 -6.015625 C 8.210938 -5.671875 8.503906 -5.390625 8.921875 -5.171875 C 9.347656 -4.953125 9.832031 -4.785156 10.375 -4.671875 C 10.914062 -4.566406 11.375 -4.472656 11.75 -4.390625 C 11.820312 -4.398438 11.859375 -4.40625 11.859375 -4.40625 C 13.753906 -4.132812 15.65625 -3.894531 17.5625 -3.6875 C 18.476562 -3.664062 19.273438 -3.335938 19.953125 -2.703125 C 20.835938 -1.710938 20.757812 -0.90625 19.71875 -0.28125 C 19.3125 -0.0703125 18.894531 0.125 18.46875 0.3125 C 16.6875 1.207031 15.832031 1.941406 15.90625 2.515625 C 15.988281 3.097656 16.484375 3.65625 17.390625 4.1875 C 18.304688 4.71875 19.445312 5.039062 20.8125 5.15625 C 22.175781 5.269531 23.375 5.320312 24.40625 5.3125 C 25.445312 5.3125 26.019531 5.578125 26.125 6.109375 Z M 26.125 6.109375 "/></g></g></g><g fill="#524b46" fill-opacity="1"><g transform="translate(179.602981, 219.972554)"><g/></g></g><g fill="#524b46" fill-opacity="1"><g transform="translate(194.841092, 237.045041)"><g><path d="M 169.328125 58.484375 C 169.347656 59.179688 169.289062 59.875 169.15625 60.5625 C 169.019531 61.25 168.710938 61.894531 168.234375 62.5 C 167.671875 63.164062 166.976562 63.363281 166.15625 63.09375 C 165.695312 62.90625 165.382812 62.597656 165.21875 62.171875 C 165.0625 61.753906 165.101562 61.316406 165.34375 60.859375 C 166.007812 59.609375 166.304688 58.363281 166.234375 57.125 C 166.171875 55.882812 165.972656 54.632812 165.640625 53.375 C 164.941406 50.59375 164.003906 47.914062 162.828125 45.34375 C 161.660156 42.769531 160.394531 40.25 159.03125 37.78125 C 156.695312 33.71875 153.101562 28.75 148.25 22.875 C 143.394531 17 137.660156 10.742188 131.046875 4.109375 C 124.441406 -2.515625 117.328125 -8.984375 109.703125 -15.296875 C 102.085938 -21.617188 94.332031 -27.253906 86.4375 -32.203125 C 78.539062 -37.160156 70.894531 -40.875 63.5 -43.34375 C 56.113281 -45.820312 49.351562 -46.554688 43.21875 -45.546875 C 37.957031 -44.585938 34 -41.800781 31.34375 -37.1875 C 29.539062 -33.96875 28.335938 -30.566406 27.734375 -26.984375 C 26.796875 -21.628906 26.363281 -16.242188 26.4375 -10.828125 C 26.394531 -6.148438 26.375 -1.457031 26.375 3.25 C 26.363281 7.8125 26.347656 12.40625 26.328125 17.03125 C 26.253906 22.21875 26.101562 27.390625 25.875 32.546875 C 25.851562 33.023438 25.84375 33.503906 25.84375 33.984375 C 25.789062 36.710938 25.421875 39.394531 24.734375 42.03125 C 23.835938 44.90625 22.535156 46.460938 20.828125 46.703125 C 19.128906 46.941406 17.203125 46.222656 15.046875 44.546875 C 12.890625 42.878906 10.695312 40.660156 8.46875 37.890625 C 6.25 35.117188 4.195312 32.148438 2.3125 28.984375 C 0.4375 25.828125 -1.066406 22.882812 -2.203125 20.15625 C -3.347656 17.4375 -3.921875 15.304688 -3.921875 13.765625 C -3.859375 10.617188 -2.269531 9 0.84375 8.90625 C 4.101562 8.882812 7.179688 9.664062 10.078125 11.25 C 14.378906 13.445312 17.519531 16.75 19.5 21.15625 C 19.84375 22.03125 20.085938 22.941406 20.234375 23.890625 C 20.253906 23.972656 20.265625 24.0625 20.265625 24.15625 C 20.316406 24.394531 20.28125 24.625 20.15625 24.84375 C 20.03125 25.070312 19.804688 25.21875 19.484375 25.28125 C 18.910156 25.3125 18.519531 25.070312 18.3125 24.5625 C 18.101562 24.0625 17.953125 23.5625 17.859375 23.0625 C 16.921875 19.625 14.984375 16.953125 12.046875 15.046875 C 9.109375 13.148438 5.84375 12.253906 2.25 12.359375 C 0.59375 12.484375 -0.304688 13.210938 -0.453125 14.546875 C -0.597656 15.890625 -0.3125 17.492188 0.40625 19.359375 C 1.132812 21.222656 1.976562 22.988281 2.9375 24.65625 C 3.90625 26.320312 4.644531 27.550781 5.15625 28.34375 C 5.28125 28.476562 5.351562 28.585938 5.375 28.671875 C 5.5 28.816406 5.632812 28.992188 5.78125 29.203125 C 6.375 30.265625 7.253906 31.664062 8.421875 33.40625 C 9.585938 35.144531 10.859375 36.867188 12.234375 38.578125 C 13.617188 40.296875 14.984375 41.609375 16.328125 42.515625 C 17.671875 43.421875 18.835938 43.566406 19.828125 42.953125 C 20.828125 42.335938 21.519531 40.546875 21.90625 37.578125 C 22.300781 34.429688 22.578125 31.242188 22.734375 28.015625 C 23.054688 19.984375 23.148438 11.945312 23.015625 3.90625 C 23.035156 0.976562 23.046875 -1.941406 23.046875 -4.859375 C 23.066406 -9.753906 23.191406 -14.648438 23.421875 -19.546875 C 23.597656 -24.066406 24.269531 -28.515625 25.4375 -32.890625 C 26.300781 -36.035156 27.675781 -38.925781 29.5625 -41.5625 C 32.71875 -45.8125 36.9375 -48.296875 42.21875 -49.015625 C 48.0625 -49.835938 54.46875 -49.191406 61.4375 -47.078125 C 68.414062 -44.972656 75.628906 -41.753906 83.078125 -37.421875 C 90.535156 -33.097656 97.972656 -28.035156 105.390625 -22.234375 C 112.804688 -16.429688 119.921875 -10.238281 126.734375 -3.65625 C 133.546875 2.925781 139.757812 9.53125 145.375 16.15625 C 150.988281 22.78125 155.726562 29.078125 159.59375 35.046875 C 163.46875 41.023438 166.1875 46.332031 167.75 50.96875 C 168.65625 53.363281 169.179688 55.867188 169.328125 58.484375 Z M 169.328125 58.484375 "/></g></g></g><g fill="#524b46" fill-opacity="1"><g transform="translate(224.551379, 270.331873)"><g><path d="M 17.53125 0.484375 C 15.863281 0.535156 14.140625 0.367188 12.359375 -0.015625 C 10.578125 -0.410156 8.925781 -1.175781 7.40625 -2.3125 C 5.894531 -3.457031 5.035156 -4.628906 4.828125 -5.828125 C 4.628906 -7.023438 5.570312 -8.125 7.65625 -9.125 C 9.894531 -10.0625 12.265625 -10.691406 14.765625 -11.015625 C 15.304688 -11.066406 15.847656 -10.929688 16.390625 -10.609375 C 16.753906 -10.335938 16.953125 -9.992188 16.984375 -9.578125 C 17.015625 -9.171875 16.867188 -8.867188 16.546875 -8.671875 C 15.785156 -8.410156 15.015625 -8.171875 14.234375 -7.953125 C 13.453125 -7.742188 12.9375 -7.613281 12.6875 -7.5625 C 11.257812 -7.21875 9.921875 -6.6875 8.671875 -5.96875 C 8.078125 -5.4375 8.757812 -4.597656 10.71875 -3.453125 C 12.6875 -2.304688 15.050781 -1.597656 17.8125 -1.328125 C 20.570312 -1.066406 21.632812 -0.710938 21 -0.265625 C 20.363281 0.179688 19.207031 0.429688 17.53125 0.484375 Z M 21.578125 -10.21875 C 21.441406 -10.226562 21.226562 -10.3125 20.9375 -10.46875 C 20.644531 -10.632812 20.363281 -10.832031 20.09375 -11.0625 C 19.820312 -11.289062 19.675781 -11.53125 19.65625 -11.78125 C 19.644531 -12.039062 19.882812 -12.265625 20.375 -12.453125 C 21.207031 -12.773438 21.984375 -13.015625 22.703125 -13.171875 C 23.421875 -13.335938 24.253906 -13.46875 25.203125 -13.5625 C 25.691406 -13.519531 26.085938 -13.347656 26.390625 -13.046875 C 26.703125 -12.742188 26.859375 -12.40625 26.859375 -12.03125 C 26.859375 -11.65625 26.648438 -11.367188 26.234375 -11.171875 C 24.753906 -10.429688 23.203125 -10.113281 21.578125 -10.21875 Z M 21.578125 -10.21875 "/></g></g></g><g fill="#524b46" fill-opacity="1"><g transform="translate(232.41231, 279.139108)"><g><path d="M 29.796875 9.4375 C 29.992188 9.832031 30.019531 10.101562 29.875 10.25 C 29.738281 10.394531 29.671875 10.46875 29.671875 10.46875 C 28.722656 10.675781 27.78125 10.785156 26.84375 10.796875 C 24.6875 10.785156 22.625 10.390625 20.65625 9.609375 C 19.644531 9.265625 18.734375 8.664062 17.921875 7.8125 C 16.097656 5.820312 16.253906 4.023438 18.390625 2.421875 C 18.867188 2.117188 19.367188 1.84375 19.890625 1.59375 C 20.160156 1.5 20.40625 1.378906 20.625 1.234375 C 21.519531 0.773438 21.96875 0.46875 21.96875 0.3125 C 21.976562 0.164062 21.5625 0.117188 20.71875 0.171875 C 20.539062 0.140625 20.359375 0.128906 20.171875 0.140625 C 18.910156 0.191406 17.648438 0.203125 16.390625 0.171875 C 14.035156 0.191406 11.738281 -0.132812 9.5 -0.8125 C 8.175781 -1.226562 7.0625 -1.921875 6.15625 -2.890625 C 4.625 -4.441406 4.554688 -6.015625 5.953125 -7.609375 C 6.515625 -8.253906 7.160156 -8.785156 7.890625 -9.203125 C 11.054688 -10.828125 14.191406 -11.238281 17.296875 -10.4375 C 20.410156 -9.644531 22.910156 -7.800781 24.796875 -4.90625 C 25.234375 -4 25.90625 -3.644531 26.8125 -3.84375 C 27.164062 -3.90625 27.519531 -3.972656 27.875 -4.046875 C 29.675781 -4.421875 31.46875 -4.8125 33.25 -5.21875 C 36.65625 -6.007812 40.082031 -6.804688 43.53125 -7.609375 C 46.257812 -8.203125 49.007812 -8.816406 51.78125 -9.453125 C 52.625 -9.671875 53.472656 -9.832031 54.328125 -9.9375 C 54.722656 -10 55.054688 -9.925781 55.328125 -9.71875 C 55.597656 -9.519531 55.859375 -9.285156 56.109375 -9.015625 C 56.160156 -8.953125 56.21875 -8.882812 56.28125 -8.8125 C 56.550781 -8.507812 56.691406 -8.203125 56.703125 -7.890625 C 56.710938 -7.578125 56.546875 -7.359375 56.203125 -7.234375 C 55.390625 -6.859375 54.582031 -6.550781 53.78125 -6.3125 C 49.769531 -5.21875 45.796875 -4.019531 41.859375 -2.71875 C 37.929688 -1.414062 34 -0.078125 30.0625 1.296875 C 28.707031 1.785156 27.359375 2.273438 26.015625 2.765625 C 24.398438 3.296875 22.832031 3.9375 21.3125 4.6875 C 20.96875 4.851562 20.660156 5.050781 20.390625 5.28125 C 20.128906 5.519531 20.019531 5.859375 20.0625 6.296875 C 20.09375 6.546875 20.222656 6.726562 20.453125 6.84375 C 20.691406 6.96875 20.945312 7.101562 21.21875 7.25 C 21.289062 7.238281 21.367188 7.242188 21.453125 7.265625 C 23.554688 7.953125 25.71875 8.367188 27.9375 8.515625 C 28.3125 8.554688 28.664062 8.617188 29 8.703125 C 29.332031 8.796875 29.597656 9.039062 29.796875 9.4375 Z M 21.28125 -3.015625 C 21.707031 -3.085938 22.015625 -3.269531 22.203125 -3.5625 C 22.390625 -3.851562 22.414062 -4.1875 22.28125 -4.5625 C 22.09375 -5.382812 21.609375 -6.015625 20.828125 -6.453125 C 18.972656 -7.585938 16.921875 -8.09375 14.671875 -7.96875 C 12.429688 -7.851562 10.476562 -7.128906 8.8125 -5.796875 C 8.78125 -5.703125 8.75 -5.640625 8.71875 -5.609375 C 8.570312 -5.484375 8.4375 -5.363281 8.3125 -5.25 C 7.695312 -4.46875 7.945312 -3.894531 9.0625 -3.53125 C 10.1875 -3.164062 11.664062 -2.957031 13.5 -2.90625 C 15.34375 -2.851562 17.046875 -2.851562 18.609375 -2.90625 C 20.171875 -2.957031 21.0625 -2.992188 21.28125 -3.015625 Z M 21.28125 -3.015625 "/></g></g></g><g fill="#524b46" fill-opacity="1"><g transform="translate(249.262921, 298.018207)"><g><path d="M 20.15625 5.125 C 18.53125 5.019531 16.894531 4.660156 15.25 4.046875 C 13.601562 3.429688 12.332031 2.816406 11.4375 2.203125 C 10.550781 1.585938 9.722656 0.882812 8.953125 0.09375 C 7.710938 -1.195312 6.804688 -2.582031 6.234375 -4.0625 C 5.335938 -6.550781 6.175781 -8.441406 8.75 -9.734375 C 11.03125 -10.796875 13.390625 -10.972656 15.828125 -10.265625 C 18.265625 -9.554688 20.238281 -8.328125 21.75 -6.578125 C 21.75 -6.578125 21.757812 -6.5625 21.78125 -6.53125 C 22.195312 -6.132812 22.539062 -5.703125 22.8125 -5.234375 C 23.164062 -4.347656 23.148438 -3.570312 22.765625 -2.90625 C 22.378906 -2.25 21.671875 -1.832031 20.640625 -1.65625 C 18.316406 -1.320312 16.332031 -1.910156 14.6875 -3.421875 C 13.59375 -4.421875 12.703125 -5.523438 12.015625 -6.734375 C 11.867188 -6.953125 11.65625 -7.078125 11.375 -7.109375 C 11.101562 -7.140625 10.859375 -7.082031 10.640625 -6.9375 C 9.066406 -6.082031 8.597656 -4.945312 9.234375 -3.53125 C 9.972656 -1.757812 11.226562 -0.351562 13 0.6875 C 15.03125 1.90625 17.453125 2.625 20.265625 2.84375 C 23.085938 3.0625 24.550781 3.332031 24.65625 3.65625 C 24.769531 3.976562 24.550781 4.300781 24 4.625 C 23.070312 5.070312 21.789062 5.238281 20.15625 5.125 Z M 15.21875 -7.734375 C 15.019531 -7.734375 14.84375 -7.691406 14.6875 -7.609375 C 14.53125 -7.535156 14.457031 -7.382812 14.46875 -7.15625 C 14.632812 -6.351562 15.035156 -5.675781 15.671875 -5.125 C 16.304688 -4.582031 17.003906 -4.269531 17.765625 -4.1875 C 18.535156 -4.101562 19.175781 -4.34375 19.6875 -4.90625 C 19.84375 -5.125 19.867188 -5.335938 19.765625 -5.546875 C 19.671875 -5.765625 19.535156 -5.941406 19.359375 -6.078125 C 18.171875 -7.023438 16.789062 -7.578125 15.21875 -7.734375 Z M 15.21875 -7.734375 "/></g></g></g><g fill="#524b46" fill-opacity="1"><g transform="translate(260.993848, 311.161312)"><g><path d="M 23.546875 -1.53125 C 22.390625 -0.738281 21.273438 -0.625 20.203125 -1.1875 C 19.128906 -1.75 19.296875 -2.394531 20.703125 -3.125 C 22.109375 -3.851562 21.9375 -4.625 20.1875 -5.4375 C 18.445312 -6.257812 16.765625 -6.71875 15.140625 -6.8125 C 12.597656 -6.9375 10.082031 -6.804688 7.59375 -6.421875 C 7.382812 -6.410156 7.203125 -6.394531 7.046875 -6.375 C 6.335938 -6.289062 5.660156 -6.21875 5.015625 -6.15625 C 4.554688 -6.125 4.175781 -6.207031 3.875 -6.40625 C 3.582031 -6.613281 3.332031 -6.867188 3.125 -7.171875 C 2.925781 -7.460938 2.851562 -7.75 2.90625 -8.03125 C 2.957031 -8.3125 3.132812 -8.503906 3.4375 -8.609375 C 4 -8.796875 4.585938 -8.960938 5.203125 -9.109375 C 8.929688 -10.003906 12.6875 -10.882812 16.46875 -11.75 C 16.519531 -11.738281 16.5625 -11.75 16.59375 -11.78125 C 17.164062 -11.925781 17.738281 -12.015625 18.3125 -12.046875 C 18.90625 -12.035156 19.347656 -11.804688 19.640625 -11.359375 C 19.929688 -10.921875 19.929688 -10.453125 19.640625 -9.953125 C 19.265625 -9.316406 19.097656 -8.90625 19.140625 -8.71875 C 19.179688 -8.53125 19.46875 -8.300781 20 -8.03125 C 21.144531 -7.4375 22.171875 -6.769531 23.078125 -6.03125 C 23.984375 -5.289062 24.578125 -4.550781 24.859375 -3.8125 C 25.140625 -3.082031 24.703125 -2.320312 23.546875 -1.53125 Z M 23.546875 -1.53125 "/></g></g></g><g fill="#524b46" fill-opacity="1"><g transform="translate(271.071964, 322.452639)"><g><path d="M 17.53125 0.484375 C 15.863281 0.535156 14.140625 0.367188 12.359375 -0.015625 C 10.578125 -0.410156 8.925781 -1.175781 7.40625 -2.3125 C 5.894531 -3.457031 5.035156 -4.628906 4.828125 -5.828125 C 4.628906 -7.023438 5.570312 -8.125 7.65625 -9.125 C 9.894531 -10.0625 12.265625 -10.691406 14.765625 -11.015625 C 15.304688 -11.066406 15.847656 -10.929688 16.390625 -10.609375 C 16.753906 -10.335938 16.953125 -9.992188 16.984375 -9.578125 C 17.015625 -9.171875 16.867188 -8.867188 16.546875 -8.671875 C 15.785156 -8.410156 15.015625 -8.171875 14.234375 -7.953125 C 13.453125 -7.742188 12.9375 -7.613281 12.6875 -7.5625 C 11.257812 -7.21875 9.921875 -6.6875 8.671875 -5.96875 C 8.078125 -5.4375 8.757812 -4.597656 10.71875 -3.453125 C 12.6875 -2.304688 15.050781 -1.597656 17.8125 -1.328125 C 20.570312 -1.066406 21.632812 -0.710938 21 -0.265625 C 20.363281 0.179688 19.207031 0.429688 17.53125 0.484375 Z M 21.578125 -10.21875 C 21.441406 -10.226562 21.226562 -10.3125 20.9375 -10.46875 C 20.644531 -10.632812 20.363281 -10.832031 20.09375 -11.0625 C 19.820312 -11.289062 19.675781 -11.53125 19.65625 -11.78125 C 19.644531 -12.039062 19.882812 -12.265625 20.375 -12.453125 C 21.207031 -12.773438 21.984375 -13.015625 22.703125 -13.171875 C 23.421875 -13.335938 24.253906 -13.46875 25.203125 -13.5625 C 25.691406 -13.519531 26.085938 -13.347656 26.390625 -13.046875 C 26.703125 -12.742188 26.859375 -12.40625 26.859375 -12.03125 C 26.859375 -11.65625 26.648438 -11.367188 26.234375 -11.171875 C 24.753906 -10.429688 23.203125 -10.113281 21.578125 -10.21875 Z M 21.578125 -10.21875 "/></g></g></g><g fill="#524b46" fill-opacity="1"><g transform="translate(278.932895, 331.259874)"><g><path d="M 4.5 -3 C 3.21875 -4.425781 3.320312 -5.804688 4.8125 -7.140625 C 6.632812 -8.765625 10.910156 -10.453125 17.640625 -12.203125 C 17.910156 -12.296875 18.15625 -12.222656 18.375 -11.984375 C 19.21875 -11.035156 19.257812 -10.222656 18.5 -9.546875 C 18.238281 -9.304688 17.835938 -9.085938 17.296875 -8.890625 C 17.128906 -8.867188 14.441406 -7.890625 9.234375 -5.953125 C 8.378906 -5.628906 7.800781 -5.332031 7.5 -5.0625 C 7.164062 -4.769531 7.128906 -4.472656 7.390625 -4.171875 C 8.378906 -3.078125 13.6875 -2.632812 23.3125 -2.84375 C 24.582031 -2.894531 25.476562 -2.628906 26 -2.046875 C 26.769531 -1.179688 26.84375 -0.46875 26.21875 0.09375 C 25.976562 0.3125 24.832031 0.859375 22.78125 1.734375 C 19.976562 2.941406 18.414062 3.691406 18.09375 3.984375 C 17.59375 4.421875 17.492188 4.804688 17.796875 5.140625 C 18.523438 5.960938 22.15625 7.066406 28.6875 8.453125 C 29.082031 8.503906 29.351562 8.609375 29.5 8.765625 C 29.832031 9.140625 29.679688 9.609375 29.046875 10.171875 C 28.878906 10.316406 28.695312 10.390625 28.5 10.390625 C 24.789062 9.898438 21.796875 9.332031 19.515625 8.6875 C 17.429688 8.09375 15.921875 7.269531 14.984375 6.21875 L 14.703125 5.90625 C 13.640625 4.0625 14.15625 2.207031 16.25 0.34375 C 13.3125 -0.0078125 10.90625 -0.332031 9.03125 -0.625 C 7.164062 -0.914062 5.65625 -1.707031 4.5 -3 Z M 4.5 -3 "/></g></g></g><g fill="#524b46" fill-opacity="1"><g transform="translate(295.501333, 349.822832)"><g><path d="M 21.21875 0.71875 C 18.207031 -0.863281 15.945312 -1.9375 14.4375 -2.5 C 13.375 -2.9375 12.664062 -3.097656 12.3125 -2.984375 C 11.96875 -2.867188 11.597656 -2.378906 11.203125 -1.515625 C 11.171875 -1.484375 11.144531 -1.414062 11.125 -1.3125 C 10.613281 -0.269531 9.957031 0.660156 9.15625 1.484375 C 7.519531 3.128906 4.992188 2.738281 1.578125 0.3125 C -1.828125 -2.113281 -3.664062 -4.128906 -3.9375 -5.734375 C -4.21875 -7.347656 -3.679688 -8.398438 -2.328125 -8.890625 C -0.984375 -9.378906 0.941406 -9.242188 3.453125 -8.484375 C 5.972656 -7.734375 7.710938 -7.273438 8.671875 -7.109375 C 9.628906 -6.941406 10.285156 -7.222656 10.640625 -7.953125 C 10.773438 -8.203125 10.894531 -8.457031 11 -8.71875 C 11.289062 -9.332031 11.59375 -9.96875 11.90625 -10.625 C 12.457031 -11.8125 13.191406 -12.769531 14.109375 -13.5 C 15.023438 -14.238281 16.046875 -14.570312 17.171875 -14.5 C 18.296875 -14.4375 19.441406 -13.800781 20.609375 -12.59375 C 21.273438 -11.90625 21.75 -11.1875 22.03125 -10.4375 C 22.3125 -9.6875 22.300781 -8.890625 22 -8.046875 C 21.832031 -7.410156 21.390625 -7.15625 20.671875 -7.28125 C 20.191406 -7.375 19.882812 -7.660156 19.75 -8.140625 C 19.65625 -8.429688 19.601562 -8.75 19.59375 -9.09375 C 19.632812 -9.132812 19.65625 -9.15625 19.65625 -9.15625 C 19.632812 -9.300781 19.625 -9.441406 19.625 -9.578125 C 19.675781 -9.773438 19.695312 -9.960938 19.6875 -10.140625 C 19.613281 -10.785156 19.347656 -11.253906 18.890625 -11.546875 C 18.429688 -11.847656 17.859375 -11.878906 17.171875 -11.640625 C 16.660156 -11.410156 16.203125 -11.117188 15.796875 -10.765625 C 15.328125 -10.285156 14.941406 -9.742188 14.640625 -9.140625 C 14.484375 -8.753906 14.332031 -8.398438 14.1875 -8.078125 C 13.75 -7.222656 13.476562 -6.601562 13.375 -6.21875 C 13.28125 -5.832031 13.351562 -5.535156 13.59375 -5.328125 C 13.84375 -5.128906 16.515625 -3.675781 21.609375 -0.96875 C 22.671875 -0.351562 22.539062 0.207031 21.21875 0.71875 Z M 3.859375 -1.359375 C 5.160156 -0.628906 6.257812 -0.816406 7.15625 -1.921875 C 7.238281 -1.992188 7.3125 -2.085938 7.375 -2.203125 C 7.894531 -2.765625 8.226562 -3.273438 8.375 -3.734375 C 8.519531 -4.191406 8.144531 -4.585938 7.25 -4.921875 C 4.96875 -5.691406 2.644531 -6.207031 0.28125 -6.46875 C 0.0820312 -6.46875 -0.09375 -6.472656 -0.25 -6.484375 C -0.25 -6.484375 -0.289062 -6.476562 -0.375 -6.46875 C -0.5625 -6.4375 -0.707031 -6.320312 -0.8125 -6.125 C -0.914062 -5.9375 -0.875 -5.738281 -0.6875 -5.53125 C 0.457031 -3.757812 1.972656 -2.367188 3.859375 -1.359375 Z M 3.859375 -1.359375 "/></g></g></g></svg>